<mxfile host="app.diagrams.net" modified="2024-05-09T10:27:33.976Z" agent="Mozilla/5.0 (Windows NT 10.0; Win64; x64) AppleWebKit/537.36 (KHTML, like Gecko) Chrome/124.0.0.0 Safari/537.36 Edg/124.0.0.0" etag="uh94tekCNw-5yqEXYnrP" version="24.3.1" type="github">
  <diagram name="第 1 页" id="uOMZjFD4KoYbTf5LOK4h">
    <mxGraphModel dx="1254" dy="750" grid="1" gridSize="10" guides="1" tooltips="1" connect="1" arrows="1" fold="1" page="1" pageScale="1" pageWidth="827" pageHeight="1169" math="0" shadow="0">
      <root>
        <mxCell id="0" />
        <mxCell id="1" parent="0" />
        <mxCell id="ANk-F92Zr3obsCUlaDkP-1" value="" style="group" vertex="1" connectable="0" parent="1">
          <mxGeometry x="40" y="190" width="580" height="120" as="geometry" />
        </mxCell>
        <mxCell id="GfKaCuZxMOizb0Q-hArU-2" value="" style="rounded=0;whiteSpace=wrap;html=1;fontSize=23;fontFamily=宋体;" parent="ANk-F92Zr3obsCUlaDkP-1" vertex="1">
          <mxGeometry y="20" width="580" height="100" as="geometry" />
        </mxCell>
        <mxCell id="GfKaCuZxMOizb0Q-hArU-1" value="业务呈现层" style="rounded=0;whiteSpace=wrap;html=1;fontSize=23;fontFamily=宋体;" parent="ANk-F92Zr3obsCUlaDkP-1" vertex="1">
          <mxGeometry x="20" width="540" height="40" as="geometry" />
        </mxCell>
        <mxCell id="GfKaCuZxMOizb0Q-hArU-3" value="IDE&lt;font face=&quot;宋体&quot;&gt;插件&lt;/font&gt;" style="rounded=0;whiteSpace=wrap;html=1;fontSize=23;fontFamily=Times New Roman;" parent="ANk-F92Zr3obsCUlaDkP-1" vertex="1">
          <mxGeometry x="10" y="60" width="180" height="60" as="geometry" />
        </mxCell>
        <mxCell id="GfKaCuZxMOizb0Q-hArU-4" value="&lt;font face=&quot;Times New Roman&quot;&gt;Web&lt;/font&gt;应用" style="rounded=0;whiteSpace=wrap;html=1;fontSize=23;fontFamily=宋体;" parent="ANk-F92Zr3obsCUlaDkP-1" vertex="1">
          <mxGeometry x="200" y="60" width="180" height="60" as="geometry" />
        </mxCell>
        <mxCell id="GfKaCuZxMOizb0Q-hArU-5" value="用户反馈流程" style="rounded=0;whiteSpace=wrap;html=1;fontSize=23;fontFamily=宋体;" parent="ANk-F92Zr3obsCUlaDkP-1" vertex="1">
          <mxGeometry x="390" y="60" width="180" height="60" as="geometry" />
        </mxCell>
        <mxCell id="ANk-F92Zr3obsCUlaDkP-2" value="" style="group" vertex="1" connectable="0" parent="1">
          <mxGeometry x="40" y="330" width="580" height="120" as="geometry" />
        </mxCell>
        <mxCell id="ANk-F92Zr3obsCUlaDkP-3" value="" style="rounded=0;whiteSpace=wrap;html=1;fontSize=23;fontFamily=宋体;" vertex="1" parent="ANk-F92Zr3obsCUlaDkP-2">
          <mxGeometry y="20" width="580" height="100" as="geometry" />
        </mxCell>
        <mxCell id="ANk-F92Zr3obsCUlaDkP-4" value="统一建模层" style="rounded=0;whiteSpace=wrap;html=1;fontSize=23;fontFamily=宋体;" vertex="1" parent="ANk-F92Zr3obsCUlaDkP-2">
          <mxGeometry x="20" width="540" height="40" as="geometry" />
        </mxCell>
        <mxCell id="ANk-F92Zr3obsCUlaDkP-5" value="模型管理" style="rounded=0;whiteSpace=wrap;html=1;fontSize=23;fontFamily=宋体;" vertex="1" parent="ANk-F92Zr3obsCUlaDkP-2">
          <mxGeometry x="10" y="60" width="180" height="60" as="geometry" />
        </mxCell>
        <mxCell id="ANk-F92Zr3obsCUlaDkP-6" value="&lt;font&gt;关联漏洞模型&lt;/font&gt;" style="rounded=0;whiteSpace=wrap;html=1;fontSize=23;fontFamily=宋体;" vertex="1" parent="ANk-F92Zr3obsCUlaDkP-2">
          <mxGeometry x="200" y="60" width="180" height="60" as="geometry" />
        </mxCell>
        <mxCell id="ANk-F92Zr3obsCUlaDkP-7" value="模型微调" style="rounded=0;whiteSpace=wrap;html=1;fontSize=23;fontFamily=宋体;" vertex="1" parent="ANk-F92Zr3obsCUlaDkP-2">
          <mxGeometry x="390" y="60" width="180" height="60" as="geometry" />
        </mxCell>
      </root>
    </mxGraphModel>
  </diagram>
</mxfile>
